<?xml version="1.0" encoding="utf-8"?>
<!-- Generator: Adobe Illustrator 22.0.1, SVG Export Plug-In . SVG Version: 6.00 Build 0)  -->
<svg version="1.1" id="圖層_1" xmlns="http://www.w3.org/2000/svg" xmlns:xlink="http://www.w3.org/1999/xlink" x="0px" y="0px"
	 viewBox="0 0 64 64" style="enable-background:new 0 0 64 64;" xml:space="preserve">
<style type="text/css">
	.st0{opacity:0.55;fill:#231815;}
	.st1{opacity:0.74;fill:#FFFFFF;}
	.st2{fill:#FFFFFF;}
</style>
<rect x="0" y="0" class="st0" width="64" height="64"/>
<g>
	<polygon class="st1" points="17.1,19.9 17.1,24.6 17.1,24.6 17.1,19.9 	"/>
	<polygon class="st2" points="45.7,8.9 37,8.9 36.1,8.9 36.1,8.9 36.1,8.9 17.1,27.9 17.1,24.6 17.1,19.9 17.1,12.2 20.5,12.2 
		20.5,16.5 20.5,16.5 20.5,21.3 23.7,18 23.8,17.9 23.8,13.1 23.8,8.9 23.5,8.9 20.5,8.9 17.1,8.9 13.7,8.9 13.7,12.2 13.7,23.3 
		13.7,28 13.7,31.3 13.7,36.1 17.1,32.7 37.5,12.2 42.3,12.2 13.7,40.9 13.7,45.6 47.1,12.2 50.3,9 50.3,8.9 	"/>
	<polygon class="st2" points="47.9,50.3 35.5,33.3 33.5,30.6 31.1,33 13.7,50.4 13.7,55.1 33.1,35.7 43.7,50.3 39.5,50.3 32.4,40.4 
		29.9,42.9 36.1,51.4 37.8,53.7 42,53.7 46.2,53.7 50.3,53.7 50.3,53.7 	"/>
</g>
</svg>
